<svg xmlns="http://www.w3.org/2000/svg" enable-background="new 0 0 24 24" viewBox="0 0 24 24" id="gravatar">
  <path fill="#110638" d="M12,24C5.383,24,0,18.617,0,12c0-3.203,1.248-6.217,3.513-8.486c1.06-1.06,2.903-1.059,3.962,0c1.092,1.092,1.092,2.869,0,3.961C6.267,8.682,5.601,10.289,5.601,12c0,3.528,2.871,6.398,6.399,6.398s6.399-2.871,6.399-6.399c0-2.463-1.42-4.693-3.599-5.755v4.606c0,1.543-1.256,2.798-2.8,2.798s-2.8-1.255-2.8-2.798V2.8C9.2,1.256,10.456,0,12,0c6.617,0,12,5.383,12,12S18.617,24,12,24z M5.494,3.692c-0.481,0-0.934,0.188-1.274,0.528C2.144,6.301,1,9.063,1,12c0,6.065,4.935,11,11,11s11-4.935,11-11S18.065,1,12,1c-0.992,0-1.8,0.808-1.8,1.8v8.05c0,0.991,0.808,1.798,1.8,1.798s1.8-0.807,1.8-1.798V5.493c0-0.163,0.079-0.314,0.211-0.408c0.132-0.094,0.302-0.118,0.456-0.063c2.95,1.045,4.932,3.849,4.932,6.978c0,4.08-3.319,7.399-7.399,7.399S4.601,16.079,4.601,12c0-1.978,0.77-3.836,2.167-5.232c0.702-0.702,0.702-1.845,0-2.547C6.427,3.88,5.975,3.692,5.494,3.692z"></path>
</svg>
